{
  "accessors": [
    {
      "bufferView": 0,
      "byteOffset": 0,
      "componentType": 5126,
      "count": 50,
      "max": [
        0.129409536719322,
        0.5,
        0.129409536719322
      ],
      "min": [
        -0.129409536719322,
        -0.5,
        -0.129409536719322
      ],
      "type": "VEC3"
    },
    {
      "bufferView": 0,
      "byteOffset": 600,
      "componentType": 5126,
      "count": 50,
      "max": [
        0.268908590078354,
        1,
        0.268908590078354
      ],
      "min": [
        -0.268908590078354,
        -1,
        -0.268908560276031
      ],
      "type": "VEC3"
    },
    {
      "bufferView": 2,
      "byteOffset": 0,
      "componentType": 5123,
      "count": 144,
      "max": [
        49
      ],
      "min": [
        0
      ],
      "type": "SCALAR"
    },
    {
      "bufferView": 0,
      "byteOffset": 1200,
      "componentType": 5126,
      "count": 204,
      "max": [
        0.5,
        0.482962906360626,
        0.5
      ],
      "min": [
        -0.5,
        -0.482962906360626,
        -0.5
      ],
      "type": "VEC3"
    },
    {
      "bufferView": 0,
      "byteOffset": 3648,
      "componentType": 5126,
      "count": 204,
      "max": [
        0.999999940395355,
        0.963165760040283,
        0.999999940395355
      ],
      "min": [
        -1,
        -0.963165700435638,
        -1
      ],
      "type": "VEC3"
    },
    {
      "bufferView": 2,
      "byteOffset": 288,
      "componentType": 5123,
      "count": 720,
      "max": [
        203
      ],
      "min": [
        0
      ],
      "type": "SCALAR"
    },
    {
      "bufferView": 0,
      "byteOffset": 6096,
      "componentType": 5126,
      "count": 204,
      "max": [
        0.5,
        0.482962906360626,
        0.5
      ],
      "min": [
        -0.5,
        -0.482962906360626,
        -0.5
      ],
      "type": "VEC3"
    },
    {
      "bufferView": 0,
      "byteOffset": 8544,
      "componentType": 5126,
      "count": 204,
      "max": [
        0.999999940395355,
        0.963165760040283,
        0.999999940395355
      ],
      "min": [
        -1,
        -0.963165760040283,
        -1
      ],
      "type": "VEC3"
    },
    {
      "bufferView": 2,
      "byteOffset": 1728,
      "componentType": 5123,
      "count": 720,
      "max": [
        203
      ],
      "min": [
        0
      ],
      "type": "SCALAR"
    },
    {
      "bufferView": 1,
      "byteOffset": 0,
      "componentType": 5126,
      "count": 20,
      "max": [
        0.9916666666666667
      ],
      "min": [
        0.041666666666666664
      ],
      "type": "SCALAR"
    },
    {
      "bufferView": 1,
      "byteOffset": 80,
      "componentType": 5126,
      "count": 20,
      "max": [
        0,
        2.7406444549560547,
        0
      ],
      "min": [
        0,
        0.2996174097061157,
        0
      ],
      "type": "VEC3"
    },
    {
      "bufferView": 1,
      "byteOffset": 320,
      "componentType": 5126,
      "count": 20,
      "max": [
        1.3701729774475098,
        1.5768864154815674,
        1.3701729774475098
      ],
      "min": [
        0.7761592268943787,
        0.61479252576828,
        0.7761592268943787
      ],
      "type": "VEC3"
    }
  ],
  "animations": [
    {
      "channels": [
        {
          "sampler": 0,
          "target": {
            "node": 0,
            "path": "scale"
          }
        },
        {
          "sampler": 1,
          "target": {
            "node": 0,
            "path": "translation"
          }
        }
      ],
      "name": "Main",
      "samplers": [
        {
          "input": 9,
          "interpolation": "LINEAR",
          "output": 11
        },
        {
          "input": 9,
          "interpolation": "LINEAR",
          "output": 10
        }
      ]
    }
  ],
  "asset": {
    "generator": "qtek fbx2gltf",
    "version": "2.0"
  },
  "bufferViews": [
    {
      "buffer": 0,
      "byteLength": 10992,
      "byteOffset": 0,
      "target": 34962
    },
    {
      "buffer": 0,
      "byteLength": 560,
      "byteOffset": 10992,
      "target": 34962
    },
    {
      "buffer": 0,
      "byteLength": 3168,
      "byteOffset": 11552,
      "target": 34963
    }
  ],
  "buffers": [
    {
      "byteLength": 14720,
      "uri": "bouncyball.bin"
    }
  ],
  "materials": [
    {
      "name": "Blue",
      "emissiveFactor": [
        0,
        0,
        0
      ],
      "pbrMetallicRoughness": {
        "baseColorFactor": [
          0,
          0.0392156862745098,
          0.9019607843137255,
          1
        ],
        "metallicFactor": 0,
        "roughnessFactor": 0.8213901449934544
      }
    },
    {
      "name": "Yellow",
      "emissiveFactor": [
        0,
        0,
        0
      ],
      "pbrMetallicRoughness": {
        "baseColorFactor": [
          0.9019607843137255,
          0.9019607843137255,
          0,
          1
        ],
        "metallicFactor": 0,
        "roughnessFactor": 0.8213901449934544
      }
    },
    {
      "name": "Red",
      "emissiveFactor": [
        0,
        0,
        0
      ],
      "pbrMetallicRoughness": {
        "baseColorFactor": [
          0.9019607843137255,
          0,
          0,
          1
        ],
        "metallicFactor": 0,
        "roughnessFactor": 0.8213901449934544
      }
    }
  ],
  "meshes": [
    {
      "name": "sphere_object1_Material0",
      "primitives": [
        {
          "attributes": {
            "NORMAL": 1,
            "POSITION": 0
          },
          "indices": 2,
          "material": 0
        },
        {
          "attributes": {
            "NORMAL": 4,
            "POSITION": 3
          },
          "indices": 5,
          "material": 1
        },
        {
          "attributes": {
            "NORMAL": 7,
            "POSITION": 6
          },
          "indices": 8,
          "material": 2
        }
      ]
    }
  ],
  "nodes": [
    {
      "matrix": [
        1.3701729774475098,
        0,
        0,
        0,
        0,
        0.61479252576828,
        0,
        0,
        0,
        0,
        1.3701729774475098,
        0,
        0,
        0.2996174097061157,
        0,
        1
      ],
      "mesh": 0,
      "name": "sphere_object1"
    }
  ],
  "scene": 0,
  "scenes": [
    {
      "nodes": [
        0
      ]
    }
  ],
  "extras": {
    "qtekModelViewerConfig": {
      "preZ": true,
      "materials": [
        {
          "name": "Blue",
          "color": "#000ae6",
          "emission": "#000000",
          "alpha": 1,
          "alphaCutoff": 0,
          "emissionIntensity": 1,
          "uvRepeat": {
            "0": 1,
            "1": 1
          },
          "parallaxOcclusionScale": 0.02,
          "diffuseMap": "",
          "normalMap": "",
          "parallaxOcclusionMap": "",
          "emissiveMap": "",
          "metalness": 0,
          "roughness": 0.8213901449934544,
          "metalnessMap": "",
          "roughnessMap": "",
          "type": "pbrMetallicRoughness",
          "targetMeshes": [
            "sphere_object1_Material0"
          ]
        },
        {
          "name": "Yellow",
          "color": "#e6e600",
          "emission": "#000000",
          "alpha": 1,
          "alphaCutoff": 0,
          "emissionIntensity": 1,
          "uvRepeat": {
            "0": 1,
            "1": 1
          },
          "parallaxOcclusionScale": 0.02,
          "diffuseMap": "",
          "normalMap": "",
          "parallaxOcclusionMap": "",
          "emissiveMap": "",
          "metalness": 0,
          "roughness": 0.8213901449934544,
          "metalnessMap": "",
          "roughnessMap": "",
          "type": "pbrMetallicRoughness",
          "targetMeshes": [
            "sphere_object1_Material0$1"
          ]
        },
        {
          "name": "Red",
          "color": "#e60000",
          "emission": "#000000",
          "alpha": 1,
          "alphaCutoff": 0,
          "emissionIntensity": 1,
          "uvRepeat": {
            "0": 1,
            "1": 1
          },
          "parallaxOcclusionScale": 0.02,
          "diffuseMap": "",
          "normalMap": "",
          "parallaxOcclusionMap": "",
          "emissiveMap": "",
          "metalness": 0,
          "roughness": 0.8213901449934544,
          "metalnessMap": "",
          "roughnessMap": "",
          "type": "pbrMetallicRoughness",
          "targetMeshes": [
            "sphere_object1_Material0$2"
          ]
        }
      ],
      "takes": [],
      "textureFlipY": false,
      "zUpToYUp": false,
      "shadow": true,
      "environment": "auto",
      "viewControl": {
        "center": [
          1.0690909624099731,
          -1.1321967840194702,
          0.9232351183891296
        ],
        "alpha": 10.229259828771838,
        "beta": 33.79452028477864,
        "distance": 47.03251490338545
      },
      "ground": {
        "show": true
      },
      "mainLight": {
        "shadow": true,
        "shadowQuality": "medium",
        "intensity": 0.8,
        "color": "#fff",
        "alpha": 45,
        "beta": 45,
        "$padAngle": [
          0.25,
          0.5
        ]
      },
      "secondaryLight": {
        "shadow": false,
        "shadowQuality": "medium",
        "intensity": 0,
        "color": "#fff",
        "alpha": 60,
        "beta": -50,
        "$padAngle": [
          -0.2777777777777778,
          0.6666666666666666
        ]
      },
      "tertiaryLight": {
        "shadow": false,
        "shadowQuality": "medium",
        "intensity": 0,
        "color": "#fff",
        "alpha": 89,
        "beta": 0,
        "$padAngle": [
          0,
          0.9888888888888889
        ]
      },
      "ambientLight": {
        "intensity": 0,
        "color": "#fff"
      },
      "ambientCubemapLight": {
        "texture": "./asset/texture/Barce_Rooftop_C.hdr",
        "$texture": "Barce_Rooftop_C",
        "$textureOptions": [
          "pisa",
          "Barce_Rooftop_C",
          "Factory_Catwalk",
          "Grand_Canyon_C",
          "Ice_Lake",
          "Hall",
          "Old_Industrial_Hall"
        ],
        "exposure": 3,
        "diffuseIntensity": 0.2,
        "specularIntensity": 0.2,
        "$intensity": 0.2
      },
      "postEffect": {
        "enable": true,
        "bloom": {
          "enable": true,
          "intensity": 0.1
        },
        "depthOfField": {
          "enable": false,
          "focalDistance": 4,
          "focalRange": 1,
          "blurRadius": 5,
          "fstop": 10,
          "quality": "medium",
          "$qualityOptions": [
            "low",
            "medium",
            "high",
            "ultra"
          ]
        },
        "screenSpaceAmbientOcclusion": {
          "enable": false,
          "radius": 1.5,
          "quality": "medium",
          "intensity": 1,
          "$qualityOptions": [
            "low",
            "medium",
            "high",
            "ultra"
          ]
        },
        "screenSpaceReflection": {
          "enable": false,
          "quality": "medium",
          "maxRoughness": 0.8,
          "$qualityOptions": [
            "low",
            "medium",
            "high",
            "ultra"
          ]
        },
        "colorCorrection": {
          "enable": true,
          "exposure": 0,
          "brightness": 0,
          "contrast": 1,
          "saturation": 1,
          "lookupTexture": ""
        },
        "FXAA": {
          "enable": false
        }
      }
    }
  },
  "extensionsUsed": [
    "KHR_materials_pbrSpecularGlossiness"
  ]
}